<?xml version="1.0" encoding="UTF-8"?>
<svg xmlns="http://www.w3.org/2000/svg" width="72" height="72" viewBox="0 0 72 72" role="img" aria-label="Flax flower">
  <g fill="none" stroke="#0f172a" stroke-width="0.6" stroke-linecap="round" stroke-linejoin="round">
    <!-- stem -->
    <path d="M36 44 C 34 56, 28 62, 22 68" fill="none" stroke="#2e7d32" stroke-width="2"/>
    <!-- leaves -->
    <path d="M28 54 C 24 52, 20 54, 18 58 C 22 58, 26 56, 28 54 Z" fill="#2e7d32" stroke="#2e7d32" stroke-width="1"/>
    <path d="M34 50 C 38 48, 42 50, 44 54 C 40 54, 36 52, 34 50 Z" fill="#2e7d32" stroke="#2e7d32" stroke-width="1"/>
  </g>
  <!-- petals group -->
  <g fill="#4f7bd9" stroke="#0f172a" stroke-width="0.8">
    <ellipse cx="36" cy="24" rx="10" ry="13" transform="rotate(0 36 30)"/>
    <ellipse cx="36" cy="24" rx="10" ry="13" transform="rotate(72 36 30)"/>
    <ellipse cx="36" cy="24" rx="10" ry="13" transform="rotate(144 36 30)"/>
    <ellipse cx="36" cy="24" rx="10" ry="13" transform="rotate(216 36 30)"/>
    <ellipse cx="36" cy="24" rx="10" ry="13" transform="rotate(288 36 30)"/>
  </g>
  <!-- center -->
  <circle cx="36" cy="30" r="4.2" fill="#f2c94c" stroke="#0f172a" stroke-width="0.6"/>
</svg>
